<?xml version="1.0" encoding="UTF-8"?>
<svg xmlns="http://www.w3.org/2000/svg" xmlns:xlink="http://www.w3.org/1999/xlink" width="54px" height="54px" viewBox="0 0 54 54" version="1.1">
<g id="surface1">
<path style=" stroke:none;fill-rule:nonzero;fill:rgb(0%,0%,0%);fill-opacity:1;" d="M 16.875 44.71875 C 15.941406 44.71875 15.1875 45.472656 15.1875 46.40625 L 18.5625 46.40625 C 18.5625 45.472656 17.808594 44.71875 16.875 44.71875 Z M 16.875 44.71875 "/>
<path style=" stroke:none;fill-rule:nonzero;fill:rgb(0%,0%,0%);fill-opacity:1;" d="M 20.25 41.34375 C 19.316406 41.34375 18.5625 42.097656 18.5625 43.03125 L 21.9375 43.03125 C 21.9375 42.097656 21.183594 41.34375 20.25 41.34375 Z M 20.25 41.34375 "/>
<path style=" stroke:none;fill-rule:nonzero;fill:rgb(0%,0%,0%);fill-opacity:1;" d="M 33.75 41.34375 C 32.816406 41.34375 32.0625 42.097656 32.0625 43.03125 L 35.4375 43.03125 C 35.4375 42.097656 34.683594 41.34375 33.75 41.34375 Z M 33.75 41.34375 "/>
<path style=" stroke:none;fill-rule:nonzero;fill:rgb(0%,0%,0%);fill-opacity:1;" d="M 6.75 52.3125 L 47.25 52.3125 C 47.25 41.128906 38.183594 32.0625 27 32.0625 C 15.816406 32.0625 6.75 41.128906 6.75 52.3125 Z M 24.46875 46.367188 C 24.46875 47.789062 23.320312 48.9375 21.898438 48.9375 L 14.363281 48.9375 C 13.011719 48.949219 11.890625 47.894531 11.816406 46.546875 C 11.777344 45.625 12.117188 44.726562 12.761719 44.058594 C 13.402344 43.394531 14.289062 43.023438 15.214844 43.03125 C 15.207031 42.136719 15.558594 41.28125 16.183594 40.644531 C 16.8125 40.011719 17.667969 39.65625 18.5625 39.65625 L 18.5625 39.402344 C 18.53125 37.789062 19.75 36.429688 21.355469 36.285156 C 22.167969 36.242188 22.957031 36.53125 23.546875 37.089844 C 24.136719 37.648438 24.46875 38.421875 24.46875 39.234375 Z M 29.53125 39.234375 C 29.53125 38.421875 29.863281 37.648438 30.453125 37.089844 C 31.042969 36.53125 31.832031 36.242188 32.644531 36.285156 C 34.25 36.429688 35.46875 37.789062 35.4375 39.402344 L 35.4375 39.65625 C 36.332031 39.65625 37.1875 40.011719 37.816406 40.644531 C 38.441406 41.28125 38.792969 42.136719 38.785156 43.03125 C 39.710938 43.023438 40.597656 43.394531 41.238281 44.058594 C 41.882812 44.726562 42.222656 45.625 42.183594 46.546875 C 42.109375 47.894531 40.988281 48.949219 39.636719 48.9375 L 32.101562 48.9375 C 30.679688 48.9375 29.53125 47.789062 29.53125 46.367188 Z M 29.53125 39.234375 "/>
<path style=" stroke:none;fill-rule:nonzero;fill:rgb(0%,0%,0%);fill-opacity:1;" d="M 38.8125 47.25 C 38.8125 46.316406 38.058594 45.5625 37.125 45.5625 C 36.191406 45.5625 35.4375 46.316406 35.4375 47.25 Z M 38.8125 47.25 "/>
<path style=" stroke:none;fill-rule:nonzero;fill:rgb(0%,0%,0%);fill-opacity:1;" d="M 5.90625 3.375 C 7.304688 3.375 8.4375 4.507812 8.4375 5.90625 C 8.4375 7.304688 7.304688 8.4375 5.90625 8.4375 C 5.441406 8.4375 5.0625 8.816406 5.0625 9.28125 L 5.0625 13.5 L 6.75 13.5 L 6.75 10.039062 C 8.925781 9.597656 10.382812 7.542969 10.085938 5.34375 C 9.789062 3.140625 7.839844 1.546875 5.625 1.695312 C 3.410156 1.847656 1.6875 3.6875 1.6875 5.90625 L 3.375 5.90625 C 3.375 4.507812 4.507812 3.375 5.90625 3.375 Z M 5.90625 3.375 "/>
<path style=" stroke:none;fill-rule:nonzero;fill:rgb(0%,0%,0%);fill-opacity:1;" d="M 5.0625 15.1875 L 6.75 15.1875 L 6.75 16.875 L 5.0625 16.875 Z M 5.0625 15.1875 "/>
<path style=" stroke:none;fill-rule:nonzero;fill:rgb(0%,0%,0%);fill-opacity:1;" d="M 43.03125 14.34375 L 34.59375 10.96875 L 34.59375 22.78125 L 43.03125 26.15625 Z M 43.03125 14.34375 "/>
<path style=" stroke:none;fill-rule:nonzero;fill:rgb(0%,0%,0%);fill-opacity:1;" d="M 43.875 26.15625 L 52.3125 22.78125 L 52.3125 10.96875 L 43.875 14.34375 Z M 43.875 26.15625 "/>
<path style=" stroke:none;fill-rule:nonzero;fill:rgb(0%,0%,0%);fill-opacity:1;" d="M 5.664062 29.863281 C 6.351562 30.71875 7.390625 31.21875 8.488281 31.21875 L 17.71875 31.21875 L 17.71875 21.09375 L 6.75 21.09375 L 6.75 27 L 3.375 27 Z M 15.1875 28.265625 L 12.65625 28.265625 L 12.65625 27.421875 L 15.1875 27.421875 Z M 9.28125 24.046875 L 15.1875 24.046875 L 15.1875 24.890625 L 9.28125 24.890625 Z M 9.28125 27.421875 L 10.96875 27.421875 L 10.96875 28.265625 L 9.28125 28.265625 Z M 9.28125 27.421875 "/>
<path style=" stroke:none;fill-rule:nonzero;fill:rgb(0%,0%,0%);fill-opacity:1;" d="M 25.3125 3.375 C 22.679688 3.375 20.488281 5.390625 20.269531 8.011719 C 20.046875 10.632812 21.875 12.988281 24.46875 13.425781 L 24.46875 20.25 L 26.15625 20.25 L 26.15625 13.425781 C 28.75 12.988281 30.578125 10.632812 30.355469 8.011719 C 30.136719 5.390625 27.945312 3.375 25.3125 3.375 Z M 25.3125 6.328125 C 24.148438 6.328125 23.203125 7.273438 23.203125 8.4375 L 22.359375 8.4375 C 22.363281 6.808594 23.683594 5.488281 25.3125 5.484375 Z M 25.3125 6.328125 "/>
</g>
</svg>
