<?xml version="1.0" encoding="UTF-8"?>
<svg xmlns="http://www.w3.org/2000/svg" xmlns:xlink="http://www.w3.org/1999/xlink" width="34px" height="34px" viewBox="0 0 34 34" version="1.1">
<g id="surface1">
<path style=" stroke:none;fill-rule:nonzero;fill:rgb(0%,0%,0%);fill-opacity:1;" d="M 17 2.890625 C 9.210938 2.890625 2.835938 9.25 2.835938 17.082031 C 2.835938 24.167969 8.019531 30.046875 14.792969 31.109375 L 14.792969 21.191406 L 11.195312 21.191406 L 11.195312 17.082031 L 14.792969 17.082031 L 14.792969 13.953125 C 14.792969 10.398438 16.898438 8.441406 20.144531 8.441406 C 21.691406 8.441406 23.304688 8.710938 23.304688 8.710938 L 23.304688 12.210938 L 21.519531 12.210938 C 19.765625 12.210938 19.207031 13.300781 19.207031 14.421875 L 19.207031 17.082031 L 23.148438 17.082031 L 22.511719 21.191406 L 19.207031 21.191406 L 19.207031 31.109375 C 22.550781 30.585938 25.585938 28.878906 27.78125 26.308594 C 29.972656 23.734375 31.171875 20.464844 31.164062 17.082031 C 31.164062 9.25 24.789062 2.890625 17 2.890625 Z M 17 2.890625 "/>
</g>
</svg>
