<?xml version="1.0" encoding="UTF-8"?>
<svg xmlns="http://www.w3.org/2000/svg" xmlns:xlink="http://www.w3.org/1999/xlink" width="54px" height="54px" viewBox="0 0 54 54" version="1.1">
<g id="surface1">
<path style="fill:none;stroke-width:1;stroke-linecap:butt;stroke-linejoin:miter;stroke:rgb(0%,0%,0%);stroke-opacity:1;stroke-miterlimit:4;" d="M 2.5 1.499566 C 2.5 2.051866 2.051866 2.5 1.499566 2.5 C 0.947266 2.5 0.500217 2.051866 0.500217 1.499566 C 0.500217 0.947266 0.947266 0.500217 1.499566 0.500217 C 2.051866 0.500217 2.5 0.947266 2.5 1.499566 Z M 2.5 1.499566 L 4.499783 1.499566 C 6.156684 1.499566 7.5 2.842882 7.5 4.499783 L 7.5 10.500217 C 7.5 12.157118 8.843316 13.500434 10.500217 13.500434 L 12.5 13.500434 M 12.5 13.500434 C 12.5 14.052734 12.948134 14.499783 13.500434 14.499783 C 14.052734 14.499783 14.499783 14.052734 14.499783 13.500434 C 14.499783 12.948134 14.052734 12.5 13.500434 12.5 C 12.948134 12.5 12.5 12.948134 12.5 13.500434 Z M 12.5 13.500434 " transform="matrix(3.6,0,0,3.6,0,0)"/>
</g>
</svg>
