<?xml version="1.0" encoding="UTF-8"?>
<svg xmlns="http://www.w3.org/2000/svg" xmlns:xlink="http://www.w3.org/1999/xlink" width="54px" height="54px" viewBox="0 0 54 54" version="1.1">
<g id="surface1">
<path style=" stroke:none;fill-rule:nonzero;fill:rgb(6.666667%,9.803922%,9.411765%);fill-opacity:1;" d="M 33.75 11.8125 L 20.25 8.4375 L 5.0625 11.8125 L 5.0625 45.5625 L 20.25 42.1875 L 33.75 45.5625 L 48.9375 42.1875 L 48.9375 8.4375 Z M 45.5625 39.480469 L 33.796875 42.097656 L 20.296875 38.722656 L 8.4375 41.355469 L 8.4375 30.375 L 10.125 30.375 L 10.125 27 L 8.4375 27 L 8.4375 14.519531 L 20.203125 11.90625 L 33.703125 15.28125 L 45.5625 12.644531 Z M 34.941406 24.121094 L 37.125 26.300781 L 39.308594 24.121094 L 41.691406 26.503906 L 39.511719 28.6875 L 41.691406 30.871094 L 39.308594 33.253906 L 37.125 31.074219 L 34.941406 33.253906 L 32.558594 30.871094 L 34.738281 28.6875 L 32.558594 26.503906 Z M 27 27 L 30.375 27 L 30.375 30.375 L 27 30.375 Z M 20.25 27 L 23.625 27 L 23.625 30.375 L 20.25 30.375 Z M 13.5 27 L 16.875 27 L 16.875 30.375 L 13.5 30.375 Z M 13.5 27 "/>
</g>
</svg>
