<?xml version="1.0" encoding="UTF-8"?>
<svg xmlns="http://www.w3.org/2000/svg" xmlns:xlink="http://www.w3.org/1999/xlink" width="54px" height="54px" viewBox="0 0 54 54" version="1.1">
<g id="surface1">
<path style=" stroke:none;fill-rule:nonzero;fill:rgb(0%,0%,0%);fill-opacity:1;" d="M 28.878906 36.65625 L 28.878906 39.03125 C 28.878906 39.414062 28.726562 39.78125 28.457031 40.054688 C 28.183594 40.324219 27.816406 40.476562 27.433594 40.476562 C 27.046875 40.476562 26.679688 40.324219 26.410156 40.054688 C 26.136719 39.78125 25.984375 39.414062 25.984375 39.03125 L 25.984375 36.589844 C 25.027344 36.433594 24.109375 36.082031 23.289062 35.5625 C 22.472656 35.042969 21.761719 34.363281 21.210938 33.566406 C 20.988281 33.324219 20.867188 33.007812 20.867188 32.679688 C 20.867188 32.492188 20.902344 32.308594 20.976562 32.136719 C 21.050781 31.964844 21.15625 31.808594 21.292969 31.679688 C 21.429688 31.550781 21.589844 31.449219 21.765625 31.382812 C 21.9375 31.320312 22.125 31.289062 22.3125 31.296875 C 22.5 31.296875 22.683594 31.335938 22.851562 31.414062 C 23.019531 31.496094 23.167969 31.609375 23.285156 31.753906 C 23.976562 32.65625 24.914062 33.335938 25.984375 33.71875 L 25.984375 28.230469 C 23.113281 27.085938 21.664062 25.421875 21.664062 23.242188 C 21.707031 22.074219 22.167969 20.960938 22.960938 20.101562 C 23.75 19.242188 24.824219 18.691406 25.984375 18.554688 L 25.984375 16.15625 C 25.984375 15.773438 26.136719 15.40625 26.410156 15.132812 C 26.679688 14.863281 27.046875 14.710938 27.433594 14.710938 C 27.816406 14.710938 28.183594 14.863281 28.457031 15.132812 C 28.726562 15.40625 28.878906 15.773438 28.878906 16.15625 L 28.878906 18.53125 C 29.6875 18.65625 30.460938 18.941406 31.15625 19.375 C 31.847656 19.804688 32.449219 20.371094 32.917969 21.039062 C 33.109375 21.289062 33.222656 21.589844 33.242188 21.902344 C 33.25 22.085938 33.21875 22.273438 33.148438 22.445312 C 33.082031 22.617188 32.980469 22.773438 32.851562 22.90625 C 32.722656 23.039062 32.570312 23.148438 32.398438 23.21875 C 32.230469 23.292969 32.046875 23.328125 31.859375 23.328125 C 31.667969 23.324219 31.476562 23.28125 31.300781 23.199219 C 31.125 23.117188 30.972656 23 30.84375 22.851562 C 30.328125 22.210938 29.652344 21.714844 28.878906 21.425781 L 28.878906 26.285156 L 29.417969 26.503906 C 32.164062 27.5625 33.871094 29.117188 33.871094 31.601562 C 33.832031 32.917969 33.296875 34.171875 32.371094 35.109375 C 31.445312 36.050781 30.195312 36.601562 28.878906 36.65625 Z M 25.984375 25.035156 L 25.984375 21.535156 C 25.636719 21.660156 25.335938 21.894531 25.128906 22.199219 C 24.917969 22.507812 24.808594 22.871094 24.820312 23.242188 C 24.835938 23.609375 24.953125 23.964844 25.160156 24.269531 C 25.367188 24.574219 25.652344 24.816406 25.984375 24.96875 Z M 30.738281 31.664062 C 30.738281 30.605469 30.003906 29.980469 28.878906 29.503906 L 28.878906 33.824219 C 29.410156 33.75 29.894531 33.480469 30.238281 33.070312 C 30.578125 32.660156 30.757812 32.136719 30.738281 31.601562 Z M 30.738281 31.664062 "/>
<path style="fill:none;stroke-width:1.5;stroke-linecap:round;stroke-linejoin:round;stroke:rgb(0%,0%,0%);stroke-opacity:1;stroke-miterlimit:4;" d="M 12.580512 3.969546 L 5.999566 3.969546 C 4.939815 3.969546 3.921658 4.390914 3.171152 5.141421 C 2.420645 5.891927 1.999277 6.908275 1.999277 7.969835 L 1.999277 17.970558 C 1.999277 19.03031 2.420645 20.048466 3.171152 20.798973 C 3.921658 21.547671 4.939815 21.970848 5.999566 21.970848 L 18.000434 21.970848 C 19.060185 21.970848 20.078342 21.547671 20.828848 20.798973 C 21.579355 20.048466 22.000723 19.03031 22.000723 17.970558 L 22.000723 11.899595 " transform="matrix(2.16,0,0,2.16,1.08,0)"/>
<path style="fill:none;stroke-width:1.5;stroke-linecap:round;stroke-linejoin:round;stroke:rgb(0%,0%,0%);stroke-opacity:1;stroke-miterlimit:4;" d="M 21.998915 2.920645 L 16.340278 8.579282 " transform="matrix(2.16,0,0,2.16,1.08,0)"/>
<path style="fill:none;stroke-width:1.5;stroke-linecap:round;stroke-linejoin:round;stroke:rgb(0%,0%,0%);stroke-opacity:1;stroke-miterlimit:4;" d="M 20.870443 8.579282 L 16.340278 8.579282 L 16.340278 4.049117 " transform="matrix(2.16,0,0,2.16,1.08,0)"/>
</g>
</svg>
