<?xml version="1.0" encoding="UTF-8"?>
<svg xmlns="http://www.w3.org/2000/svg" xmlns:xlink="http://www.w3.org/1999/xlink" width="32px" height="32px" viewBox="0 0 32 32" version="1.1">
<g id="surface1">
<path style=" stroke:none;fill-rule:evenodd;fill:rgb(0%,0%,0%);fill-opacity:1;" d="M 10.0625 28.800781 C 22.140625 28.800781 28.742188 18.949219 28.742188 10.410156 C 28.742188 10.128906 28.742188 9.847656 28.726562 9.574219 C 30.007812 8.660156 31.117188 7.523438 32 6.226562 C 30.804688 6.75 29.53125 7.09375 28.230469 7.242188 C 29.601562 6.4375 30.625 5.167969 31.117188 3.667969 C 29.828125 4.421875 28.417969 4.953125 26.945312 5.238281 C 24.460938 2.636719 20.300781 2.507812 17.65625 4.957031 C 15.953125 6.535156 15.230469 8.886719 15.757812 11.132812 C 10.480469 10.871094 5.5625 8.417969 2.226562 4.378906 C 0.484375 7.332031 1.375 11.109375 4.261719 13.007812 C 3.214844 12.976562 2.195312 12.699219 1.28125 12.199219 L 1.28125 12.28125 C 1.28125 15.359375 3.484375 18.007812 6.546875 18.617188 C 5.582031 18.878906 4.566406 18.914062 3.585938 18.726562 C 4.441406 21.363281 6.910156 23.164062 9.71875 23.21875 C 7.390625 25.015625 4.519531 25.992188 1.5625 25.988281 C 1.042969 25.988281 0.519531 25.957031 0 25.898438 C 3.003906 27.792969 6.496094 28.800781 10.0625 28.796875 "/>
</g>
</svg>
