<?xml version="1.0" encoding="UTF-8"?>
<svg xmlns="http://www.w3.org/2000/svg" xmlns:xlink="http://www.w3.org/1999/xlink" width="32px" height="32px" viewBox="0 0 32 32" version="1.1">
<g id="surface1">
<path style=" stroke:none;fill-rule:nonzero;fill:rgb(5.882353%,5.882353%,5.882353%);fill-opacity:1;" d="M 8.019531 10.675781 C 8.171875 9.46875 9.738281 7.832031 10.980469 8.015625 L 10.976562 8.011719 C 12.1875 8.242188 13.144531 10.324219 13.683594 11.257812 C 14.066406 11.9375 13.820312 12.625 13.460938 12.917969 C 12.980469 13.304688 12.226562 13.839844 12.386719 14.378906 C 12.667969 15.332031 16 18.667969 17.640625 19.613281 C 18.261719 19.972656 18.710938 19.027344 19.09375 18.542969 C 19.375 18.167969 20.0625 17.945312 20.738281 18.316406 C 21.75 18.902344 22.703125 19.589844 23.585938 20.359375 C 24.027344 20.726562 24.128906 21.273438 23.824219 21.847656 C 23.289062 22.859375 21.734375 24.195312 20.605469 23.921875 C 18.636719 23.449219 10.667969 20.359375 8.105469 11.410156 C 7.964844 10.988281 8 10.828125 8.019531 10.675781 Z M 8.019531 10.675781 "/>
<path style=" stroke:none;fill-rule:evenodd;fill:rgb(5.882353%,5.882353%,5.882353%);fill-opacity:1;" d="M 16 30.667969 C 14.367188 30.667969 13.464844 30.492188 12 30 L 9.191406 31.402344 C 7.417969 32.289062 5.332031 31 5.332031 29.019531 L 5.332031 26 C 2.460938 23.324219 1.332031 20.234375 1.332031 16 C 1.332031 7.898438 7.898438 1.332031 16 1.332031 C 24.101562 1.332031 30.667969 7.898438 30.667969 16 C 30.667969 24.101562 24.101562 30.667969 16 30.667969 Z M 8 24.839844 L 7.152344 24.050781 C 4.921875 21.96875 4 19.644531 4 16 C 4 9.371094 9.371094 4 16 4 C 22.628906 4 28 9.371094 28 16 C 28 22.628906 22.628906 28 16 28 C 14.6875 28 14.070312 27.882812 12.847656 27.472656 L 11.796875 27.121094 L 8 29.019531 Z M 8 24.839844 "/>
</g>
</svg>
